<svg version="1.1" id="svg8" xmlns:cc="http://creativecommons.org/ns#" xmlns:dc="http://purl.org/dc/elements/1.1/" xmlns:inkscape="http://www.inkscape.org/namespaces/inkscape" xmlns:rdf="http://www.w3.org/1999/02/22-rdf-syntax-ns#" xmlns:sodipodi="http://sodipodi.sourceforge.net/DTD/sodipodi-0.dtd" xmlns:svg="http://www.w3.org/2000/svg" xmlns="http://www.w3.org/2000/svg" xmlns:xlink="http://www.w3.org/1999/xlink" x="0px" y="0px" viewBox="0 0 110.54 110.83" style="enable-background:new 0 0 110.54 110.83;" xml:space="preserve">
 <style type="text/css">
  .st0{fill:#FFFFFF;}
 </style>
 <g id="layer1" inkscape:groupmode="layer" inkscape:label="Capa 1">
  <path id="path2" class="st0" d="M82.66,0.03c-21.47,2.65-42.21,6.56-63,12.59c-2.71,0.85-4.37,3.88-3.69,6.57
		c1.52,5.99,2.29,8.99,3.83,15c0.65,2.54,3.21,3.84,5.8,2.98c21.24-6.54,42.53-11.01,64.51-14.27c2.52-0.34,3.89-2.94,2.97-5.55
		c-1.95-5.51-2.93-8.25-4.92-13.73C87.3,1.3,85.01-0.23,82.66,0.03z M100.62,33.37c-33.61,4.29-66.35,12.6-97.39,26.34
		c-2.26,1.07-3.62,3.92-3.14,6.43c1.22,6.42,1.83,9.64,3.07,16.07c0.53,2.75,3.1,4.02,5.63,2.78
		c31.53-14.45,64.84-23.64,99.01-29.12c2.17-0.36,3.28-2.85,2.45-5.41c-1.72-5.32-2.59-7.98-4.37-13.27
		C105.07,34.73,102.84,33.08,100.62,33.37z M100.22,69.19c-20.99,4.56-41.51,10.05-61.83,17.03c-2.58,0.95-4.03,3.66-3.35,6.17
		c1.62,5.96,2.42,8.95,4.06,14.93c0.77,2.81,3.93,4.25,6.83,3.14c20.31-7.28,40.83-13.63,61.79-18.73c2.01-0.49,3-2.85,2.26-5.28
		c-1.65-5.37-2.48-8.05-4.18-13.39C104.97,70.43,102.53,68.71,100.22,69.19z">
  </path>
 </g>
</svg>